<svg version="1.1" viewBox="0 0 58.1 89.2" x="0" xml:space="preserve" xmlns="http://www.w3.org/2000/svg" y="0"> <path class="st0" d="M57.4 3.9H10.9V.8c0-.4-.3-.8-.8-.8H.8C.3 0 0 .3 0 .8v87.7c0 .4.3.8.8.8h56.6c.4 0 .8-.3.8-.8V4.6c-.1-.4-.4-.7-.8-.7zm-48 .7v83.1H1.5V1.5h7.9v3.1zm1.5 32.9h6v6.9h-6v-6.9zm38.9-25.1h-33c-.4 0-.7.3-.8.7V36h-1.7V10.5h38V36h-1.8V13.1c0-.4-.3-.7-.7-.7zM18.4 40.2v-2.7h3.8v2.7h-3.8zm3.8 1.5v2.7h-3.8v-2.7h3.8zM17.6 36h-.1V13.9H49V36H17.6zm27.5 4.2v-2.7h3.8v2.7h-3.8zm3.8 1.5v2.7h-3.8v-2.7h3.8zm-9.2-1.5v-2.7h3.8v2.7h-3.8zm3.9 1.5v2.7h-3.8v-2.7h3.8zm-9.2-1.5v-2.7h3.8v2.7h-3.8zm3.8 1.5v2.7h-3.8v-2.7h3.8zm-9.1-1.5v-2.7h3.8v2.7h-3.8zm3.8 1.5v2.7h-3.8v-2.7h3.8zm-5.3-4.2v2.7h-3.8v-2.7h3.8zm-3.9 4.2h3.8v2.7h-3.8v-2.7zm4.6 4.2h21.2l-3.1 8.6H27.8l-3.1-8.6h3.6zm28.3 41.8H10.9V69.1h45.7v18.6zM11.1 67.6v-2.3h45.4v2.3H11.1zm45.5-3.8H10.9V45.9h12.2l3.5 9.6c.1.3.4.5.7.5H47c.3 0 .6-.2.7-.5l3.5-9.6h5.5l-.1 17.9zm0-19.4h-6.2v-6.9h6.2v6.9zm0-8.5h-2.8V9.7c0-.4-.4-.7-.8-.7H13.5c-.4 0-.8.3-.8.8V36h-1.9V5.4h45.7v30.5z"></path> <path class="st0" d="M38.9 51h4.5c.4 0 .8-.3.8-.8s-.3-.8-.8-.8h-4.5c-.4 0-.8.3-.8.8s.4.8.8.8zM26.1 29.5c.1.3.4.4.7.4.1 0 .2 0 .3-.1.4-.2.5-.6.4-1L24.3 22c-.2-.4-.7-.5-1.1-.3l-.3.3-1.9 4.1c-.1.1-.1.2-.1.2l-1.1 2.5c-.2.4 0 .8.4 1s.8 0 1-.4l1-2.2h2.9l1 2.3zm-3.3-3.7l.8-1.7.8 1.7h-1.6zM28.3 23.1h2.4v6.1c0 .4.3.8.8.8s.8-.3.8-.8v-6.1h2.4c.4 0 .8-.3.8-.8s-.3-.8-.8-.8h-6.3c-.4 0-.8.3-.8.8s.3.8.7.8zM37.7 29.9c.4 0 .8-.3.8-.8v-4.9l1.8 2c.3.3.8.3 1.1 0l1.8-2v4.9c0 .4.3.8.8.8s.8-.3.8-.8v-6.8c0-.4-.3-.8-.7-.8-.2 0-.4.1-.6.3l-2.6 2.8-2.6-2.8c-.2-.2-.5-.3-.8-.2-.3.1-.5.4-.5.7v6.8c-.1.4.2.8.7.8-.1 0-.1 0 0 0z"></path> </svg>