<svg version="1.1" xmlns="http://www.w3.org/2000/svg" x="0" y="0" viewBox="0 0 23.8 17.7" xml:space="preserve">
                      <path d="M23 3.2h-2.4L20.4.7c0-.4-.4-.7-.8-.7L.7 1.4c-.2 0-.4.1-.5.3-.1.1-.2.3-.2.5l1 12.9c0 .2.1.4.3.5.1.1.3.2.5.2h.1l1.6-.1v1.2c0 .4.4.8.8.8H23c.4 0 .8-.4.8-.8V4c0-.5-.3-.8-.8-.8zm0 2.4H4.1V4H23v1.6zm0 2.7H4.2V6.4H23v1.9zM1.8 15.1L.8 2.2 19.6.8l.2 2.4H4.1c-.4 0-.7.3-.7.8v11l-1.6.1zm2.4 1.8V9H23v7.9H4.2z"></path>
                      <path d="M9 15h-.5c-.2 0-.4.2-.4.4s.2.4.4.4H9c.2 0 .4-.2.4-.4S9.3 15 9 15zM11.5 15H11c-.2 0-.4.2-.4.4s.2.4.4.4h.5c.2 0 .4-.2.4-.4s-.1-.4-.4-.4zM6.5 15H6c-.2 0-.4.2-.4.4s.2.4.4.4h.5c.2 0 .4-.2.4-.4s-.1-.4-.4-.4zM19.6 11.9c-.4 0-.7.1-1 .3-.3-.2-.7-.3-1-.3-1 0-1.9.9-1.9 1.9s.9 1.9 1.9 1.9c.4 0 .7-.1 1-.3.3.2.7.3 1 .3 1 0 1.9-.9 1.9-1.9s-.8-1.9-1.9-1.9zm-3.1 1.9c0-.6.5-1.1 1.1-1.1.2 0 .3 0 .5.1-.2.3-.3.6-.3 1s.1.7.3 1c-.1.1-.3.1-.5.1-.6 0-1.1-.5-1.1-1.1zm3.1 1.1c-.6 0-1.1-.5-1.1-1.1s.5-1.1 1.1-1.1 1.1.5 1.1 1.1-.5 1.1-1.1 1.1zM11.6 13.4H6c-.2 0-.4.2-.4.4s.2.4.4.4h5.5c.2 0 .4-.2.4-.4s-.1-.4-.3-.4z"></path>
                    </svg>