<svg version="1.1" xmlns="http://www.w3.org/2000/svg" x="0" y="0" viewBox="0 0 93 93" xml:space="preserve">
                      <path d="M18.5 9.4c-.7.5-.8 1.4-.3 2.1.5.7 1.4.8 2.1.3C39.5-2.7 66.8 1.1 81.2 20.3s10.6 46.5-8.6 60.9c-17.2 13-41.3 11.3-56.6-3.6-.6-.6-1.5-.6-2.1 0-.6.6-.6 1.5 0 2.1 16.3 16 42.1 17.8 60.5 3.9C95 68.2 99.1 39 83.6 18.5S39-6.1 18.5 9.4zM0 48.3c0 .8.7 1.5 1.6 1.4S3.1 49 3 48.1c-.5-14 5.8-27.7 17.3-36.3.7-.5.8-1.4.3-2.1-.5-.7-1.4-.8-2.1-.3C6.2 18.7-.6 33.2 0 48.3z"></path>
                      <path d="M26 79.9c.8 0 1.5-.6 1.6-1.4 0-.8-.6-1.5-1.4-1.6l-12-.6c-.9 0-1.7.8-1.6 1.7l1.7 12c.1.8.9 1.4 1.7 1.3.8-.1 1.4-.9 1.3-1.7l-1.7-10.3 10.4.6zM57.1 26.9c.8 0 1.5.7 1.5 1.5s-.7 1.5-1.5 1.5H46.8c-10.6 0-11.9.7-11.9 7.6 0 7.1.6 7.4 11.5 7.2 12.5-.4 14.6.9 14.6 10.2 0 4.6-1.2 7.4-4 8.8-2.1 1.1-4 1.2-9.8 1.2H35.4c-.8 0-1.5-.7-1.5-1.5s.7-1.5 1.5-1.5h11.8c5.2 0 7-.1 8.4-.9 1.6-.8 2.3-2.5 2.3-6.1 0-7.3-.5-7.5-11.5-7.3-12.3.3-14.4-1-14.4-10.1 0-8.9 2.8-10.6 14.9-10.6h10.2z"></path>
                      <path d="M47 26.3c0 .8-.7 1.5-1.5 1.5s-1.5-.7-1.5-1.5v-7.9c0-.8.7-1.5 1.5-1.5s1.5.7 1.5 1.5v7.9zM47 72.3c0 .8-.7 1.5-1.5 1.5s-1.5-.7-1.5-1.5v-7.9c0-.8.7-1.5 1.5-1.5s1.5.7 1.5 1.5v7.9z"></path>
                    </svg>