<svg viewBox="0 0 49 48.4" x="0" xml:space="preserve" xmlns="http://www.w3.org/2000/svg" y="0"> <path d="M48.5 9.5H.5C.2 9.5 0 9.3 0 9V2.6C0 1.2 1.4 0 3.2 0h42.7C47.6 0 49 1.2 49 2.6V9c0 .3-.2.5-.5.5zM1 8.5h47V2.6c0-.9-1-1.6-2.2-1.6H3.2C2 1 1 1.7 1 2.6v5.9z"></path> <path d="M6.8 5.3c-.3 0-.5-.3-.5-.5s.2-.5.5-.5.5.2.5.5-.2.5-.5.5z"></path> <path d="M6.8 5.3c-.1 0-.3-.1-.4-.2 0-.1-.1-.2-.1-.3v-.2c0-.1.1-.1.1-.2.2-.2.5-.2.7 0 0 0 .1.1.1.2v.2c0 .1-.1.3-.1.3 0 .1-.2.2-.3.2zM15.4 5.3c-.1 0-.3-.1-.4-.2 0-.1-.1-.2-.1-.3v-.2c0-.1.1-.1.1-.2.1-.1.4-.2.5-.1.1 0 .1.1.2.1 0 0 .1.1.1.2v.2c0 .1 0 .3-.1.3 0 .1-.2.2-.3.2zM24 5.3c-.1 0-.3-.1-.3-.2-.1-.1-.2-.2-.2-.3v-.2c0-.1.1-.1.1-.2.1-.1.4-.2.5-.1.1 0 .1.1.2.1s.1.1.1.2v.2c0 .1 0 .3-.1.3 0 .1-.1.2-.3.2zM42.2 5.3h-6.6c-.3 0-.5-.2-.5-.5s.2-.5.5-.5h6.6c.3 0 .5.2.5.5s-.2.5-.5.5z"></path> <g> <path d="M19.7 17.6h-9c-.3 0-.5-.2-.5-.5s.2-.5.5-.5h9c.3 0 .5.2.5.5s-.2.5-.5.5zM38.3 17.6h-9c-.3 0-.5-.2-.5-.5s.2-.5.5-.5h9c.3 0 .5.2.5.5s-.2.5-.5.5z"></path> <g> <path d="M19.7 23.9h-9c-.3 0-.5-.2-.5-.5s.2-.5.5-.5h9c.3 0 .5.2.5.5s-.2.5-.5.5zM38.3 23.9h-9c-.3 0-.5-.2-.5-.5s.2-.5.5-.5h9c.3 0 .5.2.5.5s-.2.5-.5.5z"></path> </g> </g> <g> <path d="M45.8 38.3H33.3c-.3 0-.5-.2-.5-.5s.2-.5.5-.5h12.5c1.2 0 2.2-.7 2.2-1.6V9.5H1v26.2c0 .9 1 1.6 2.2 1.6h12.5c.3 0 .5.2.5.5s-.2.5-.5.5H3.2c-1.7 0-3.2-1.2-3.2-2.6V9c0-.3.2-.5.5-.5h48c.3 0 .5.2.5.5v26.7c0 1.5-1.4 2.6-3.2 2.6z"></path> </g> <g> <path d="M24.5 48.4c-.1 0-.2 0-.3-.1-10.9-5.5-10.9-19.2-10.9-19.4 0-.3.2-.5.4-.5 4.1-.5 9.4-4.2 10.3-4.9.2-.2.6-.2.8 0 .7.5 6.2 4.5 10.4 4.9.3 0 .4.2.4.5 0 .1 0 13.8-10.8 19.3 0 .1-.2.2-.3.2zm-10.1-19c.1 2.3 1 13.2 10.1 17.9 9.1-4.8 10-15.6 10.1-17.9-4.1-.7-8.8-3.9-10.1-4.9-1.3.9-6 4.2-10.1 4.9z"></path> </g> <g> <path d="M23 39.8c-.1 0-.3-.1-.4-.1l-3.1-3.1c-.2-.2-.2-.5 0-.7s.5-.2.7 0l2.8 2.8 5.7-6.5c.2-.2.5-.2.7 0 .2.2.2.5 0 .7l-6.1 6.9H23z"></path> </g> </svg>