<svg version="1.1" xmlns="http://www.w3.org/2000/svg" x="0" y="0" viewBox="0 0 127.9 128" xml:space="preserve">
                      <path d="M126 126c-1 0-1.8-.7-2-1.7-3.5-20.9-9.1-53.2-10.3-56.2l-.4-.9c-1.6-3.8-3-7.4-6.1-8.7-4-1.7-18.5-6.5-18.6-6.6-1-.4-1.6-1.5-1.2-2.6.4-1 1.4-1.5 2.4-1.2.6.2 14.8 5 18.9 6.7 4.6 1.9 6.5 6.7 8.2 10.9l.4.9c1.8 4.4 9.7 51.7 10.6 57.1.2 1.1-.6 2.1-1.6 2.3h-.3z"></path>
                      <path d="M97.1 128c-.3 0-.6-.1-.9-.2-3.1-1.7-5.9-4-8.1-6.8-3.2-4.3-4.5-8.6-5.4-13.7-.3-2.4-.4-4.8-.2-7.2.1-3.1.3-6.4-.6-8.3-.7-1.5-3.8-7.1-7.2-13.4-1.6-3-3.4-6.2-5-9.2-4.9-9-7.3-13.7-8-15.4-1.6-3.8-.9-6.5-.1-8.2 1.2-2.2 3.1-3.8 5.4-4.7 2.8-1.2 7.2-1.3 11.9 4.6L103 75.9l-3.1 2.5-24.2-30.5c-2.5-3.2-4.9-4.3-7.2-3.3-1.4.5-2.6 1.5-3.4 2.8-.6 1.6-.6 3.3.2 4.8.8 1.9 4.8 9.5 7.8 15 1.7 3.1 3.4 6.2 5 9.2 3.5 6.4 6.5 12 7.3 13.6 1.4 2.8 1.2 6.6 1 10.2-.2 2.1-.1 4.2.1 6.3.8 4.7 1.9 8.4 4.7 12 1.8 2.3 4.1 4.3 6.7 5.7 1 .5 1.4 1.7.9 2.7-.3.7-1 1.1-1.7 1.1z"></path>
                      <path d="M83.6 98h-.2c-.6 0-10-2-11.8-5.3-.4-.7-1.1-1.8-1.9-2.9-1.5-2-2.9-4.2-4-6.5-.4-1 .1-2.2 1.1-2.6s2.2.1 2.6 1.1c1 2 2.2 4 3.6 5.8.9 1.3 1.7 2.4 2.2 3.3.8 1.1 7.1 3.1 8.6 3.2 1.1.1 1.9 1.1 1.8 2.2-.1.9-1 1.7-2 1.7z"></path>
                      <path d="M80 107.4c-2.5 0-5.3-.2-6.8-.8-3.1-1.3-11.8-11.8-13.1-13.8-2-3-1.6-7 1.1-9.4 2.1-2 5.1-2.7 7.8-1.6 1 .4 1.6 1.5 1.2 2.6-.4 1-1.5 1.6-2.6 1.2-.1 0-.1 0-.2-.1-1.2-.4-2.6-.1-3.6.8-1.3 1.1-1.5 2.9-.6 4.3 1.6 2.5 9.5 11.5 11.3 12.3 1.2.5 5.9.6 9.6.3 1.1-.1 2.1.8 2.1 1.9.1 1.1-.8 2.1-1.9 2.1-.3.1-2.2.2-4.3.2z"></path>
                      <path d="M66.5 84.7c-1.4 0-2.7-.4-3.9-1.1l-58.8-35C.2 46.4-1 41.7 1.1 38.1L21.5 3.8C23.7.2 28.4-1 32.1 1.1l58.8 35c3.6 2.2 4.8 6.9 2.7 10.5l-6.3 10.7c-.5 1-1.6 1.5-2.6 1s-1.5-1.6-1-2.6c.1-.1.1-.2.2-.4l6.3-10.7c1-1.8.5-4-1.3-5.1L30 4.5c-1.7-1-3.9-.4-5 1.3L4.5 40.1c-1 1.8-.5 4 1.3 5.1l58.8 35c1.8 1 4 .5 5.1-1.3l3-5c.5-1 1.6-1.5 2.6-1s1.5 1.6 1 2.6c-.1.1-.1.2-.2.4l-3 5c-1 1.8-2.7 3-4.7 3.5-.6.2-1.3.3-1.9.3z"></path>
                      <path d="M31.6 37.6c-.7 0-1.4-.2-2-.6l-7.3-4.4c-1.9-1.1-2.5-3.6-1.4-5.5l3.3-5.5c1.1-1.9 3.6-2.5 5.5-1.4l7.3 4.4c1.9 1.1 2.5 3.6 1.4 5.5L35 35.6c-.5.9-1.4 1.6-2.5 1.8-.2.1-.6.2-.9.2zm0-4L35 28l-7.3-4.4-3.3 5.5 7.2 4.5zM39.3 56.2c-.4 0-.7-.1-1-.3l-24-14.3c-.9-.6-1.1-1.9-.4-2.8.6-.8 1.6-1 2.4-.6l24 14.3c.9.6 1.3 1.8.7 2.7-.3.6-1 1-1.7 1zM51.2 63.3c-.4 0-.7-.1-1-.3l-7-4.2c-1-.5-1.5-1.6-1-2.6s1.6-1.5 2.6-1c.1.1.2.1.4.2l7 4.2c.9.6 1.3 1.8.7 2.7-.3.6-1 1-1.7 1z"></path>
                    </svg>