<svg viewBox="0 0 90 74.1" xmlns="http://www.w3.org/2000/svg"> <path d="M78.7 0H11.4C5.1 0 0 5.1 0 11.4v51.4C0 69 5.1 74.1 11.4 74.1h67.3C84.9 74.1 90 69 90 62.8V11.4C90 5.1 84.9 0 78.7 0zm8.7 63.5c0 .2 0 .3-.1.5v.2c-.1.4-.2.9-.3 1.3H68.8c-2.4 0-4.3-1.9-4.3-4.3v-15c.2 0 .4.1.7.1h22.2v17.2zM64.5 43V31.1c0-.4.3-.7.7-.7h22.2v13.3H65.2c-.4 0-.7-.3-.7-.7zm22.9-15.2H65.2c-1.4 0-2.5.8-3 2h-4.3c-.7 0-1.3.6-1.3 1.3v15.7H28.1v-2.5h4.1c.7 0 1.3-.6 1.3-1.3V27.3H63.3c.7 0 1.3-.6 1.3-1.3V12.8c0-2.4 1.9-4.3 4.3-4.3h18.2v.1c-.1.2-.1.3-.1.4.1.2.1.4.1.5 0 .1 0 .2.1.3 0 .2.1.4.1.6v1l.1 16.4zm-76-25.2h67.3c2.8 0 5.2 1.3 6.8 3.4H68.8c-3.8 0-6.9 3-6.9 6.8v11.9H32.2c-.7 0-1.3.6-1.3 1.3v15.7h-2.8V12.8C28.1 9 25 6 21.2 6H4.5c1.6-2.1 4.1-3.4 6.9-3.4zM2.7 64.3V64c0-.1 0-.3-.1-.4V46.3h22.3c.2 0 .4 0 .6-.1v15c0 2.4-1.9 4.3-4.3 4.3H3.1c-.2-.4-.3-.8-.4-1.2zm22.2-20.6H2.6V30.4h22.3c.3 0 .6.3.6.7V43c0 .4-.3.7-.6.7zm0-15.9H2.6V11.4v-.8-.2c0-.2.1-.4.1-.6v-.2c.1-.3.2-.5.3-.8v-.1c0-.1.1-.1.1-.2h18.2c2.4 0 4.3 1.9 4.3 4.3v15.1c-.3-.1-.5-.1-.7-.1zm53.8 43.7H11.4c-2.8 0-5.3-1.3-6.9-3.4h16.8c3.9 0 6.9-3 6.9-6.9V49.4h29.7c.7 0 1.3-.6 1.3-1.3V32.4H62v28.9c0 3.9 3 6.9 6.9 6.9h16.8c-1.8 2-4.2 3.3-7 3.3z"></path> </svg>