<svg xmlns="http://www.w3.org/2000/svg" x="0" y="0" viewBox="0 0 51 49.1" xml:space="preserve">
                      <path d="M48 24.9h-2.4c-1.2-3.4-3.4-6.3-6.3-8.4l.6-5.3c.1-.5-.3-1-.9-1.1h-.3L29 12.5c-1.1-.2-2.3-.2-3.4-.2-5.3-.2-10.4 1.5-14.6 4.7-2.1 1.7-3.9 3.8-5 6.3-2.4-.2-4.2-2.3-4-4.7.1-1.1.6-2.2 1.5-2.9.4-.4.4-1 0-1.4-.4-.4-.9-.4-1.3-.1-2.6 2.3-2.9 6.3-.6 9 1 1.1 2.3 1.8 3.7 2.1-.4 1.3-.5 2.6-.6 3.9 0 4.8 2.5 9.3 6.8 12.6l-.9 1.5c-.4.7-.5 1.6-.2 2.4.2.8.8 1.5 1.5 1.9l2.1 1.2c.5.3 1 .4 1.5.4.3 0 .5 0 .8-.1.8-.2 1.5-.7 1.9-1.5l1.1-2.2c3.7.9 7.6 1 11.3.2l.3 1.1c.3 1.4 1.6 2.4 3 2.4.2 0 .4 0 .6-.1l2.3-.5c1.6-.4 2.6-2.1 2.2-3.8l-.5-2.4c2.5-1.6 4.6-3.8 6-6.4H48c1.6 0 3-1.4 3-3V28c0-1.7-1.3-3.1-3-3.1zM37.7 12.3l-.3 2.9c-1.3-.7-2.7-1.4-4.1-1.8l4.4-1.1zM49 32.8c0 .6-.4 1-1 1h-4H43.7c-.1.1-.2.1-.3.2 0 .1-.1.1-.1.2l-.1.1c-1.4 2.7-3.5 5-6.1 6.5-.1 0-.1.1-.2.2l-.1.1c-.1.1-.1.2-.2.3v.4l.7 3.1c.2.6-.1 1.2-.7 1.4l-2.4.7c-.6.1-1.1-.3-1.3-.9l-.5-2.1c0-.1 0-.1-.1-.2 0-.1-.1-.1-.1-.2l-.1-.1-.2-.2h-.1c-.1 0-.2-.1-.2-.1H31.3c-4 1-8.1.9-12-.2h-.7l-.2.1-.2.1-.1.1s-.1.1-.1.2c0 0 0 .1-.1.1l-1.5 2.9c-.1.2-.4.4-.6.5-.3.1-.6 0-.8-.1l-2-1.1c-.3-.2-.5-.4-.6-.7-.1-.3-.1-.6 0-.8l1.3-2.3c0-.1 0-.1.1-.2 0-.1 0-.1.1-.2v-.2c0-.1 0-.3-.1-.4 0-.1 0-.1-.1-.2 0-.1-.1-.1-.1-.1l-.1-.1c-4.3-2.8-6.7-7-6.7-11.4 0-1.5.3-3 .8-4.4v-.1c1-2.4 2.6-4.4 4.6-6 3.8-2.9 8.5-4.5 13.3-4.4 1.1 0 2.2.1 3.3.2 3.1.4 6.2 1.6 8.8 3.3 3 1.9 5.2 4.9 6.2 8.4v.1c0 .1.1.1.1.2.1.2.2.3.4.4l.2.1H48c.6 0 1 .4 1 1v4.8z"></path>
                      <path d="M25.8 17.4c-2.6 0-5.1.9-7.1 2.5-.4.4-.5 1-.1 1.4.4.4 1 .5 1.4.1 3.7-2.9 8.9-2.6 12.3.6.4.4 1 .4 1.4 0s.4-1 0-1.4c-2.2-2.1-5-3.2-7.9-3.2z"></path>
                      <circle cx="39.6" cy="26.5" r="1.4"></circle>
                      <path d="M25.3 9.1c2.5 0 4.6-2 4.6-4.6 0-2.5-2-4.6-4.6-4.6-2.5 0-4.6 2-4.6 4.6 0 2.6 2.1 4.6 4.6 4.6zm0-7.1c1.4 0 2.6 1.1 2.6 2.6s-1.1 2.6-2.6 2.6-2.6-1.2-2.6-2.6c0-1.5 1.2-2.6 2.6-2.6z"></path>
                    </svg>